<svg width="225" height="225" viewBox="0 0 225 225" xmlns="http://www.w3.org/2000/svg"><title>Twitter</title><g fill="none" fill-rule="evenodd"><circle fill="#A1A1A1" cx="112.5" cy="112.5" r="112.5"/><path d="M177.025 75.337c-4.527 2.008-9.393 3.366-14.5 3.976 5.213-3.125 9.216-8.072 11.1-13.967-4.877 2.893-10.28 4.994-16.03 6.126-4.605-4.906-11.166-7.972-18.427-7.972-13.943 0-25.246 11.303-25.246 25.244 0 1.98.223 3.906.653 5.754-20.98-1.053-39.582-11.104-52.034-26.377-2.172 3.73-3.417 8.066-3.417 12.692 0 8.76 4.458 16.486 11.23 21.013-4.137-.13-8.03-1.267-11.434-3.158-.002.106-.003.21-.003.318 0 12.232 8.702 22.435 20.25 24.754-2.117.576-4.348.884-6.65.884-1.627 0-3.208-.158-4.75-.452 3.213 10.03 12.536 17.328 23.583 17.532-8.64 6.77-19.525 10.807-31.353 10.807-2.038 0-4.047-.12-6.022-.352C65.147 159.32 78.417 163.5 92.673 163.5c46.436 0 71.828-38.468 71.828-71.828 0-1.095-.023-2.183-.072-3.266 4.932-3.56 9.213-8.006 12.597-13.07" fill="#FFF"/></g></svg>