<svg xmlns="http://www.w3.org/2000/svg" viewBox="0 0 379.1 265.9"><g fill="#000100"><path d="M74.4 0h22v65.1h37.1v18.5H74.4V0zM140.3 0h22v83.6h-22V0zM191.3 30.9h34.2v18.5h-34.2v34.2h-22V0h66.6v18.5h-44.6v12.4zM242.6 0h66.6v18.5h-44.6v11.2h39v18.5h-39V65h45.8v18.5h-67.8V0zM188.1 132.4c0 27.8-11.7 44.6-38.8 44.6-27.1 0-38.8-16.8-38.8-44.6S122.2 89 149.3 89c27.1-.1 38.8 15.6 38.8 43.4zm-23.1.4c0-13.1-2.1-26.5-15.6-26.5-13.6 0-15.6 13.4-15.6 26.5s2.1 26.8 15.6 26.8 15.6-13.7 15.6-26.8zM245.5 91.1c13.4 0 23.1 10.7 23.1 24.2 0 10.4-5.6 18.5-14.5 22.4l16.3 37.1H247l-13.6-34.2h-17.6v34.2h-22V91.1h51.7zm-6.6 32.1c4.9 0 7.2-3.6 7.2-7.3 0-3.5-2-7.4-7.2-7.4h-23.1v14.7h23.1zM0 182.2h37c22.1 0 37.8 10.7 37.8 41.8 0 31.2-15.6 41.8-37.8 41.8H0v-83.6zm35.7 66.1c14 0 16.6-13.2 16.6-24.2s-2.5-24.2-16.6-24.2H22v48.4h13.7zM80.6 182.2h66.6v18.5h-44.6V212h39v18.5h-39v16.8h45.8v18.5H80.6v-83.6zM177.3 265.9H154l30.2-83.6h22.5l30.9 83.6h-24.4l-4.2-14.5h-27.6l-4.1 14.5zm18.2-61.8h-.5l-8.8 31h18.1l-8.8-31zM297.7 182.2v18.5h-20.9v65.1h-22v-65.1H234v-18.5h63.7zM357.1 230h-30.2v35.9h-22v-83.6h22v28.6h30.2v-28.6h22v83.6h-22V230z"/></g></svg>