<svg width="110" height="77" viewBox="0 0 110 77" xmlns="http://www.w3.org/2000/svg"><g fill="#000100"><path d="M21.544.038V24.25h17.102v-5.365h-10.73V.038h-6.372zM40.624 24.25h6.37V.038h-6.37V24.25zM49.006.038V24.25h6.372v-9.892h9.892V8.992h-9.892V5.404h12.91V.038H49.006zM70.232.038V24.25H89.85v-5.365H76.603v-4.863h11.3V8.657h-11.3V5.404h12.91V.038H70.233zM47.75 38.486c0-3.79-.604-7.68-4.526-7.68-3.924 0-4.528 3.89-4.528 7.68 0 3.79.604 7.746 4.528 7.746 3.922 0 4.526-3.957 4.526-7.746m6.707-.135c0 8.05-3.387 12.912-11.233 12.912-7.848 0-11.235-4.862-11.235-12.91 0-8.05 3.386-12.576 11.234-12.576 7.846 0 11.233 4.527 11.233 12.575M69.143 35.702c1.41 0 2.08-1.04 2.08-2.112 0-1.006-.57-2.146-2.08-2.146H62.47v4.258h6.673zm1.912-9.29c3.89 0 6.673 3.086 6.673 7.01 0 3.018-1.61 5.365-4.19 6.472l4.727 10.73H71.49l-3.923-9.892H62.47v9.893H56.1V26.413h14.955zM10.328 71.903c4.058 0 4.796-3.823 4.796-7.01 0-3.184-.738-7.007-4.796-7.007H6.37v14.017h3.958zM0 52.79h10.697c6.405 0 10.932 3.084 10.932 12.104S17.1 77 10.696 77H0V52.79zM23.338 52.79H42.62v5.364H29.71v3.253h11.3v5.365h-11.3v4.863h13.245V77H23.338V52.79zM56.602 59.126h-.134l-2.548 8.988h5.23l-2.548-8.988zM51.337 77h-6.74l8.753-24.21h6.505L68.808 77h-7.075l-1.207-4.192h-7.98L51.335 77zM86.178 52.79v5.364h-6.036V77H73.77V58.154h-6.036V52.79h18.444zM103.38 66.604h-8.752V77h-6.372V52.79h6.37v8.28h8.754v-8.28h6.37V77h-6.37V66.604z"/></g></svg>