<svg style="display: none">
	<symbol id="lod-logo" width="184" height="129" viewBox="0 0 184 129" xmlns="http://www.w3.org/2000/svg"><path d="M36.038.064v40.563h28.607v-8.99h-17.95V.065H36.038zM67.952 40.627H78.61V.064H67.952v40.563zM81.974.064v40.563h10.66V24.054h16.546v-8.99H92.633v-6.01h21.595V.063H81.974zM117.48.064v40.563h32.814v-8.99h-22.157v-8.146h18.904v-8.987h-18.903v-5.45h21.596V.063H117.48zM79.873 64.476c0-6.348-1.01-12.865-7.572-12.865S64.73 58.13 64.73 64.477s1.01 12.977 7.573 12.977c6.563 0 7.573-6.63 7.573-12.977m11.22-.225c0 13.484-5.667 21.63-18.792 21.63-13.125 0-18.79-8.146-18.79-21.63 0-13.482 5.665-21.066 18.79-21.066 13.126 0 18.792 7.584 18.792 21.067M115.658 59.813c2.356 0 3.48-1.74 3.48-3.54 0-1.684-.955-3.595-3.48-3.595h-11.162v7.135h11.162zm3.198-15.562c6.507 0 11.162 5.17 11.162 11.743 0 5.056-2.692 8.988-7.01 10.842l7.907 17.978h-11.33L113.02 68.24h-8.524v16.573H93.838V44.25h25.018zM17.276 120.46c6.788 0 8.022-6.403 8.022-11.74 0-5.338-1.234-11.742-8.022-11.742h-6.62v23.482h6.62zM0 88.438h17.893c10.713 0 18.286 5.17 18.286 20.28 0 15.113-7.574 20.282-18.287 20.282H0V88.438zM39.04 88.438H71.29v8.99H49.696v5.448H68.6v8.99H49.696v8.145h22.157V129H39.04V88.438zM94.68 99.056h-.224l-4.263 15.057h8.75L94.68 99.056zM85.874 129H74.6l14.64-40.562h10.88L115.1 129h-11.835l-2.02-7.022h-13.35L85.873 129zM144.152 88.438v8.99h-10.097V129h-10.658V97.427H113.3v-8.99h30.852zM172.927 111.584h-14.64V129h-10.66V88.438h10.66v13.877h14.64V88.438h10.657V129h-10.657v-17.416z"/></symbol>
</svg>

